<?xml version="1.0" encoding="UTF-8" standalone="no"?>
<!-- Created with Inkscape (http://www.inkscape.org/) -->

<svg
   xmlns:dc="http://purl.org/dc/elements/1.1/"
   xmlns:cc="http://creativecommons.org/ns#"
   xmlns:rdf="http://www.w3.org/1999/02/22-rdf-syntax-ns#"
   xmlns:svg="http://www.w3.org/2000/svg"
   xmlns="http://www.w3.org/2000/svg"
   xmlns:sodipodi="http://sodipodi.sourceforge.net/DTD/sodipodi-0.dtd"
   xmlns:inkscape="http://www.inkscape.org/namespaces/inkscape"
   version="1.1"
   id="svg2"
   xml:space="preserve"
   width="614.93201"
   height="248.31586"
   viewBox="0 0 614.93201 248.31586"
   sodipodi:docname="2015pathlab_generic_ logo_vector.svg"
   inkscape:version="0.92.1 r15371"><metadata
     id="metadata8"><rdf:RDF><cc:Work
         rdf:about=""><dc:format>image/svg+xml</dc:format><dc:type
           rdf:resource="http://purl.org/dc/dcmitype/StillImage" /><dc:title></dc:title></cc:Work></rdf:RDF></metadata><defs
     id="defs6"><clipPath
       clipPathUnits="userSpaceOnUse"
       id="clipPath18"><path
         d="M 0,792 H 612 V 0 H 0 Z"
         id="path16"
         inkscape:connector-curvature="0" /></clipPath></defs><sodipodi:namedview
     pagecolor="#ffffff"
     bordercolor="#666666"
     borderopacity="1"
     objecttolerance="10"
     gridtolerance="10"
     guidetolerance="10"
     inkscape:pageopacity="0"
     inkscape:pageshadow="2"
     inkscape:window-width="1920"
     inkscape:window-height="1057"
     id="namedview4"
     showgrid="false"
     fit-margin-top="10"
     fit-margin-left="10"
     fit-margin-right="10"
     fit-margin-bottom="10"
     inkscape:zoom="1.2642212"
     inkscape:cx="308.66667"
     inkscape:cy="124.98241"
     inkscape:window-x="-2"
     inkscape:window-y="-8"
     inkscape:window-maximized="1"
     inkscape:current-layer="g10" /><g
     id="g10"
     inkscape:groupmode="layer"
     inkscape:label="2015pathlab logo_vector"
     transform="matrix(1.3333333,0,0,-1.3333333,-99.333331,651.33345)"><g
       id="g12"><g
         id="g14"
         clip-path="url(#clipPath18)"><g
           id="g20"
           transform="translate(111.377,429.0552)"><path
             d="m 0,0 c 0,-6.479 1.666,-12.573 6.312,-17.281 4.592,-4.654 10.572,-6.383 17.008,-6.383 6.462,0 12.438,1.753 17.046,6.421 l 0.002,0.002 c 4.658,4.679 6.367,10.745 6.367,17.241 0,6.5 -1.738,12.513 -6.369,17.205 -4.608,4.669 -10.58,6.44 -17.046,6.44 -6.436,0 -12.416,-1.729 -17.008,-6.382 C 1.671,12.561 0,6.473 0,0 m 0,21.564 c 2.62,3.215 5.749,5.958 9.487,7.837 l 0.002,0.001 c 4.337,2.158 9.133,2.971 13.945,2.971 9.026,0 17.306,-2.531 23.815,-8.935 C 53.683,17.067 56.304,8.967 56.304,0 c 0,-8.993 -2.652,-17.12 -9.15,-23.515 -6.487,-6.424 -14.676,-9.029 -23.72,-9.029 -4.783,0 -9.522,0.827 -13.83,2.97 l -0.002,0.001 C 5.856,-27.691 2.685,-24.972 0,-21.793 V -52.815 H -9.282 V 30.978 H 0 Z"
             style="fill:#00a0b2;fill-opacity:1;fill-rule:evenodd;stroke:none"
             id="path22"
             inkscape:connector-curvature="0" /></g><g
           id="g24"
           transform="translate(204.8369,425.0503)"><path
             d="m 0,0 c -1.987,-0.312 -3.972,-0.653 -5.944,-1.048 -1.582,-0.317 -3.162,-0.667 -4.721,-1.085 -1.171,-0.314 -2.352,-0.669 -3.482,-1.111 -0.747,-0.292 -1.548,-0.648 -2.211,-1.103 -2.3,-1.578 -3.2,-3.873 -3.2,-6.619 0,-3.152 1.394,-5.554 3.983,-7.326 l 0.004,-0.002 c 3.184,-2.216 7.302,-2.828 11.098,-2.828 6.338,0 12.714,1.267 17.882,5.126 4.403,3.307 6.775,7.616 6.775,13.15 V 4.405 C 19.568,4.123 18.928,3.879 18.296,3.662 17.022,3.224 15.71,2.868 14.401,2.551 L 14.397,2.55 C 12.477,2.099 10.52,1.737 8.578,1.395 5.726,0.891 2.863,0.437 0,0 m 32.256,-28.161 c -1.074,-0.188 -2.164,-0.295 -3.256,-0.295 -2.35,0 -4.765,0.531 -6.367,2.38 l -0.003,0.003 c -1.38,1.618 -1.995,4.17 -2.29,6.413 -2.965,-3.115 -6.407,-5.657 -10.409,-7.333 -4.737,-1.982 -10.029,-2.628 -15.13,-2.628 -6.026,0 -12.572,1.045 -17.42,4.896 -4.428,3.517 -6.221,8.411 -6.221,13.988 0,2.628 0.496,5.188 1.65,7.559 l 0.001,0.002 c 1.161,2.364 2.89,4.299 4.983,5.883 l 0.003,0.002 0.003,0.002 c 2.038,1.506 4.605,2.483 7.025,3.177 1.922,0.547 3.935,0.944 5.899,1.303 2.958,0.542 5.94,0.992 8.918,1.409 l 0.004,0.001 h 0.005 c 2.088,0.261 4.177,0.513 6.264,0.783 l 0.006,10e-4 c 3.996,0.479 12.467,1.81 14.009,6.385 0.174,0.516 0.254,1.053 0.254,1.598 0,3.109 -1.324,5.421 -3.974,7.039 -3.411,2.084 -8.335,2.505 -12.238,2.505 -5.006,0 -11.153,-0.599 -15.451,-3.411 -3.604,-2.358 -5.282,-5.838 -5.559,-10.091 l -0.038,-0.598 h -9.169 l 0.042,0.678 c 0.406,6.58 2.69,12.464 8.071,16.484 5.876,4.366 13.988,5.437 21.111,5.437 2.639,0 5.299,-0.113 7.92,-0.437 2.123,-0.263 4.265,-0.669 6.299,-1.332 3.434,-1.108 6.456,-2.965 8.711,-5.809 1.322,-1.669 2.229,-3.564 2.79,-5.616 l 0.002,-0.007 c 0.336,-1.285 0.507,-2.66 0.62,-3.981 0.158,-1.845 0.203,-3.71 0.203,-5.562 v -26.938 c 0,-0.982 0.037,-3.871 0.612,-4.699 0.443,-0.638 1.339,-0.757 2.055,-0.757 0.533,0 1.068,0.037 1.595,0.125 0.555,0.092 1.103,0.24 1.641,0.402 l 0.815,0.244 0.069,-8.204 -0.456,-0.14 c -1.177,-0.363 -2.38,-0.671 -3.599,-0.861"
             style="fill:#00a0b2;fill-opacity:1;fill-rule:evenodd;stroke:none"
             id="path26"
             inkscape:connector-curvature="0" /></g><g
           id="g28"
           transform="translate(271.0654,395.1934)"><path
             d="m 0,0 c -1.558,-0.219 -3.135,-0.35 -4.709,-0.35 -3.603,0 -7.329,0.848 -9.604,3.867 -2.478,3.286 -2.842,8.941 -2.842,12.898 V 54.79 h -10.298 v 7.888 h 10.298 v 17.805 h 9.283 V 62.678 H 5.903 V 54.79 H -7.872 V 17.485 c 0,-1.661 0.053,-6.591 1.322,-7.86 l 0.004,-0.004 c 1.177,-1.199 3.692,-1.356 5.257,-1.356 0.937,0 1.873,0.065 2.803,0.186 1.169,0.152 2.335,0.398 3.477,0.692 L 5.788,9.348 V 1.121 L 5.295,1.005 C 3.549,0.596 1.78,0.231 0,0"
             style="fill:#00a0b2;fill-opacity:1;fill-rule:evenodd;stroke:none"
             id="path30"
             inkscape:connector-curvature="0" /></g><g
           id="g32"
           transform="translate(298.9775,449.0059)"><path
             d="m 0,0 c 2.716,3.352 6.02,6.068 9.931,7.989 4.644,2.291 9.685,3.237 14.841,3.237 6.327,0 13.444,-1.114 18.174,-5.702 4.678,-4.535 5.869,-11.406 5.869,-17.653 v -39.938 h -9.168 v 34.78 c 0,4.727 -0.453,11.912 -3.652,15.714 -2.982,3.542 -8.201,4.3 -12.56,4.3 C 17.302,2.727 11.478,1.222 6.726,-2.779 2.347,-6.45 0.229,-11.142 0.229,-16.848 V -52.067 H -8.938 V 31.994 H 0 Z"
             style="fill:#00a0b2;fill-opacity:1;fill-rule:evenodd;stroke:none"
             id="path34"
             inkscape:connector-curvature="0" /></g><path
           d="m 363.539,481 h 9.168 v -84.062 h -9.168 z"
           style="fill:#131e4c;fill-opacity:1;fill-rule:evenodd;stroke:none"
           id="path36"
           inkscape:connector-curvature="0" /><g
           id="g38"
           transform="translate(414.8164,425.0503)"><path
             d="m 0,0 c -1.986,-0.312 -3.971,-0.653 -5.943,-1.048 -1.582,-0.317 -3.162,-0.667 -4.721,-1.085 -1.174,-0.314 -2.354,-0.669 -3.484,-1.111 -0.747,-0.292 -1.547,-0.648 -2.209,-1.103 -2.301,-1.578 -3.202,-3.873 -3.202,-6.619 0,-3.152 1.395,-5.554 3.983,-7.326 l 0.004,-0.002 c 3.183,-2.216 7.302,-2.828 11.099,-2.828 6.338,0 12.715,1.267 17.881,5.126 4.403,3.307 6.776,7.616 6.776,13.15 V 4.405 C 19.568,4.123 18.928,3.879 18.297,3.662 17.021,3.224 15.711,2.868 14.4,2.551 L 14.396,2.55 C 12.477,2.099 10.52,1.737 8.578,1.395 5.725,0.891 2.863,0.437 0,0 m 32.256,-28.161 c -1.074,-0.188 -2.164,-0.295 -3.256,-0.295 -2.35,0 -4.766,0.531 -6.367,2.38 l -0.004,0.003 c -1.379,1.618 -1.994,4.17 -2.289,6.413 -2.965,-3.115 -6.406,-5.657 -10.408,-7.333 -4.739,-1.982 -10.03,-2.628 -15.131,-2.628 -6.026,0 -12.572,1.045 -17.42,4.896 -4.428,3.517 -6.221,8.411 -6.221,13.988 0,2.628 0.496,5.188 1.651,7.559 v 0.002 c 1.162,2.364 2.89,4.299 4.982,5.883 l 0.004,0.002 0.004,0.002 c 2.037,1.506 4.603,2.483 7.023,3.177 1.922,0.547 3.936,0.944 5.901,1.303 2.957,0.542 5.939,0.992 8.918,1.409 l 0.003,0.001 h 0.004 c 2.09,0.261 4.178,0.513 6.264,0.783 l 0.008,10e-4 c 3.994,0.479 12.467,1.81 14.008,6.385 0.174,0.516 0.254,1.053 0.254,1.598 0,3.109 -1.325,5.421 -3.973,7.039 -3.412,2.084 -8.336,2.505 -12.238,2.505 -5.008,0 -11.153,-0.599 -15.452,-3.411 -3.605,-2.358 -5.281,-5.838 -5.558,-10.091 l -0.039,-0.598 h -9.168 l 0.041,0.678 c 0.406,6.58 2.689,12.464 8.07,16.484 5.877,4.366 13.988,5.437 21.112,5.437 2.638,0 5.298,-0.113 7.921,-0.437 2.121,-0.263 4.262,-0.669 6.299,-1.332 3.432,-1.108 6.455,-2.965 8.709,-5.809 1.322,-1.669 2.229,-3.564 2.791,-5.616 l 0.002,-0.007 c 0.336,-1.285 0.506,-2.66 0.619,-3.981 0.159,-1.845 0.203,-3.71 0.203,-5.562 v -26.938 c 0,-0.982 0.038,-3.871 0.614,-4.699 0.441,-0.638 1.338,-0.757 2.054,-0.757 0.534,0 1.069,0.037 1.594,0.125 0.557,0.092 1.104,0.24 1.643,0.402 l 0.814,0.244 0.069,-8.204 -0.456,-0.14 c -1.177,-0.363 -2.38,-0.671 -3.599,-0.861"
             style="fill:#131e4c;fill-opacity:1;fill-rule:evenodd;stroke:none"
             id="path40"
             inkscape:connector-curvature="0" /></g><g
           id="g42"
           transform="translate(469.3262,428.2031)"><path
             d="m 0,0 c 0,-6.479 1.666,-12.573 6.312,-17.281 4.592,-4.654 10.573,-6.383 17.008,-6.383 6.461,0 12.438,1.753 17.047,6.421 v 0.002 c 4.66,4.679 6.367,10.745 6.367,17.241 0,6.509 -1.724,12.577 -6.367,17.281 l -0.002,0.002 C 35.766,21.982 29.799,23.759 23.32,23.759 16.867,23.759 10.896,22.006 6.314,17.322 1.682,12.588 0,6.494 0,0 m 0,-21.727 v -9.538 H -9.281 V 52.797 H 0 V 21.749 c 2.676,3.191 5.846,5.917 9.604,7.787 4.306,2.142 9.052,2.952 13.832,2.952 9.039,0 17.246,-2.567 23.755,-8.972 6.473,-6.39 9.114,-14.507 9.114,-23.516 0,-9.016 -2.647,-17.148 -9.114,-23.553 -6.509,-6.405 -14.712,-8.992 -23.755,-8.992 -4.862,0 -9.694,0.834 -14.063,3.029 l -0.002,0.002 c -3.705,1.879 -6.799,4.58 -9.371,7.787"
             style="fill:#131e4c;fill-opacity:1;fill-rule:evenodd;stroke:none"
             id="path44"
             inkscape:connector-curvature="0" /></g><g
           id="g86"
           transform="translate(82,351.7832)"><path
             d="m 0,0 c 0.629,1.49 1.259,2.98 1.888,4.473 7.51,1.576 15.021,3.152 22.531,4.728 l 23.22,3.44 c 15.886,1.529 30.673,1.316 46.008,-0.086 19.012,-3.016 30.421,-6.399 45.494,-11.524 13.931,-5.16 27.863,-10.318 41.795,-15.478 17.801,-6.981 35.603,-11.856 53.404,-15.996 24.611,-6.547 50.051,-7.346 73.701,-7.311 33.721,0.395 47.525,3.219 82.236,8.172 18.426,3.383 37.282,6.781 55.922,11.35 -0.76,-1.547 -1.521,-3.096 -2.281,-4.643 -17.848,-3.893 -32.072,-6.73 -50.523,-10.02 -30.612,-4.929 -51.159,-8.347 -86.387,-9.125 -27.196,0 -51.094,2.127 -77.742,8.137 -22.885,5.598 -43.118,12.276 -65.358,20.639 C 145.695,-5.604 131.603,-0.529 111.191,4.73 96.006,8.207 81.737,10.311 58.217,9.115 47.237,8.588 36.258,7.326 25.279,5.332 16.486,4.012 7.667,1.775 0,0"
             style="fill:#131e4c;fill-opacity:1;fill-rule:evenodd;stroke:none"
             id="path88"
             inkscape:connector-curvature="0" /></g></g></g></g></svg>